<?xml version="1.0" encoding="utf-8"?>
<!-- Generator: Adobe Illustrator 27.1.0, SVG Export Plug-In . SVG Version: 6.00 Build 0)  -->
<svg version="1.1" id="Layer_1" xmlns="http://www.w3.org/2000/svg" xmlns:xlink="http://www.w3.org/1999/xlink" x="0px" y="0px"
	 viewBox="0 0 1536 1536" style="enable-background:new 0 0 1536 1536;" xml:space="preserve">
<g transform="translate(0.000000,1536.000000) scale(0.100000,-0.100000)">
	<path d="M4914,13177c-143-122-359-305-479-407s-266-225-324-275c-114-98-199-170-337-285c-49-41-91-77-94-80s-34-30-70-60
		c-36-31-76-65-90-77c-132-112-393-334-422-358c-41-34-485-411-858-729c-135-114-265-225-290-246c-203-171-356-303-358-310
		c-6-17,66-21,284-18l219,3l115,98c63,54,142,122,174,150c33,29,71,61,85,72c28,21,273,226,281,235c4,4,45,38,135,111
		c11,9,70,59,130,111c61,51,180,152,265,223s157,132,160,135s50,43,105,89s111,93,125,105s135,114,270,226c135,113,261,219,280,237
		c19,17,49,42,65,54c17,13,94,78,171,144c78,66,203,172,279,235s172,144,214,180c145,124,229,190,241,190c11,0,119-86,281-222
		c76-65,222-188,544-458c56-47,124-103,150-125c27-22,80-67,119-101c39-33,154-130,256-215s196-164,210-176c14-11,75-63,135-114
		c61-52,191-162,290-244s198-165,220-184c22-20,62-54,89-76c132-108,232-194,245-208c21-26,55-20,123,21c35,21,96,56,136,77
		c42,23,72,46,72,55s-48,56-107,105c-60,49-151,126-203,171c-52,46-149,128-215,184s-131,112-145,124s-83,70-155,130
		c-71,60-148,126-171,145c-22,20-53,47-70,61c-144,120-222,187-239,203c-11,10-51,44-90,75c-38,31-72,59-75,63c-5,6-273,234-480,409
		c-68,58-205,174-305,259c-99,84-216,184-260,221c-44,38-138,118-210,179c-71,61-137,111-145,111S5058,13300,4914,13177z"/>
	<path d="M8785,11214c-22-13-49-28-60-34c-11-5-27-14-35-20c-22-15-212-125-230-133c-8-4-28-16-45-27c-16-11-39-24-50-30
		s-29-16-40-23s-51-30-90-51c-38-22-133-76-210-121s-194-113-260-151s-129-74-140-81s-27-16-35-20s-71-40-139-80
		c-67-40-125-73-126-73c-2,0-41-22-87-50c-46-27-90-50-99-50c-10,0-40,15-68,34c-27,19-54,36-58,38c-8,3-82,51-298,193
		c-60,40-146,95-189,123l-80,51l-27,109c-29,118-93,279-117,300c-17,13-304,18-336,6c-22-8-21-15,19-99c71-152,125-358,125-476
		c0-60-29-214-50-264c-64-153-167-297-286-401c-136-117-363-270-388-261c-23,9-214,135-220,146c-4,5,11,45,33,88
		c53,107,88,198,113,296c28,108,30,276,4,362c-24,81-62,152-88,167c-30,17-340,17-463,1c-129-18-380-80-475-117c-19-8-55-22-80-31
		c-25-10-60-24-77-32c-18-7-47-20-65-28c-400-173-768-417-1078-712l-65-63h-350c-192,0-359-3-370-5c-26-7-47,8-40,26
		c4,8,34,36,68,62s124,101,201,165c76,64,202,171,280,237s193,163,256,215c272,227,335,284,335,299c0,14-26,16-225,19
		c-124,1-235,0-247-3c-21-5-115-81-428-348c-189-162-278-237-420-357c-474-402-710-603-717-613c-4-6-4-15-2-19c3-4,410-8,905-8h899
		l93,96c103,108,252,240,372,330c75,57,262,184,270,184c2,0,38,21,81,46c82,48,261,136,354,174c101,41,125,49,185,66
		c33,9,80,22,105,29c127,36,376,71,455,64l40-4v-65c-1-90-17-149-90-324c-43-104-86-187-122-234c-14-18-22-39-20-46c3-8,30-30,59-50
		c29-19,90-61,135-93c204-144,367-259,385-272c22-16,14-19,173,68c421,230,752,575,849,886c15,47,27,71,39,73c10,2,71-32,137-75
		s128-83,137-88c10-6,63-40,118-76c227-150,289-189,300-189c13,0,53,20,100,50c17,11,37,23,45,27s59,33,113,65s101,58,103,58
		s21,11,42,23c31,20,400,234,467,271c11,7,39,24,62,39c24,15,45,27,47,27c3,0,43,22,88,49c46,27,101,59,123,71s92,53,155,90
		s180,104,260,150s192,111,250,145s112,64,120,68s29,16,45,27c17,11,36,23,44,26c7,4,52,30,100,57c47,28,95,55,106,61
		c47,27,74,49,69,57c-3,5-146,9-322,8C8827,11238,8825,11238,8785,11214z"/>
	<path d="M8814,10437c-12-7-14-271-14-1898c0-1747-1-1890-16-1896c-19-7-30,4-574,577c-107,113-213,224-235,246
		c-43,45-138,144-310,324c-61,63-198,207-305,319s-211,220-230,240c-432,454-429,451-441,451c-15,0-11-3047,3-3056c6-4,97-8,201-8
		c146-1,194,2,204,12c11,11,13,195,13,1003c0,784,3,989,13,989c11,0,140-128,347-346c47-49,191-199,320-333s240-249,245-255
		c19-21,430-451,470-492c58-61,171-178,440-459c132-137,245-254,252-258s18-5,23-2c7,4,10,833,10,2414c0,2071-2,2410-14,2420
		C9199,10443,8837,10450,8814,10437z"/>
	<path d="M5065,8828c-3-7-6-310-8-673l-2-660h-620h-620l-5,550l-5,550l-195,3c-107,1-205,0-217-3l-23-5V7177c0-840,4-1418,9-1427
		c14-21,408-20,422,1c5,8,9,301,9,665c0,492,3,653,12,662s160,12,619,12c544,0,607-2,613-16c3-9,6-307,6-662c0-360,4-653,9-661
		c7-11,48-14,198-16c103-1,198,2,211,7l22,8l-2,1542l-3,1543l-213,3C5117,8840,5068,8838,5065,8828z"/>
	<path d="M5862,8828c-9-9-12-366-12-1545V5750l23-8c28-10,389-8,405,2c17,11,18,3066,0,3084c-9,9-69,12-208,12S5871,8837,5862,8828z
		"/>
	<path d="M1297,8624c-4-4-7-655-7-1446c0-1362,1-1438,18-1439c75-6,372-3,390,3l22,8v562c0,310,3,573,6,586c5,18,13,22,43,22
		c36,0,40-3,106-102c38-57,94-137,125-178c30-41,86-120,123-175s95-138,128-185s75-107,94-135c18-27,66-95,105-150s92-132,118-172
		c26-39,56-75,67-80c15-7,452-10,498-4c23,3-11,53-403,586c-60,83-161,222-225,310c-63,88-138,191-166,229c-73,98-73,99,3,125
		c291,101,476,301,545,591c26,112,24,298-6,420c-51,210-182,385-363,485c-117,64-192,88-398,126C2047,8625,1310,8636,1297,8624z
		 M1964,8219c151-11,205-24,304-71c82-40,143-102,182-186c31-63,32-73,32-187c1-113-1-125-31-196c-53-128-143-201-311-251
		c-87-26-397-39-411-17c-13,20-12,875,1,900C1743,8234,1764,8235,1964,8219z"/>
	<path d="M10819,8496c-2-2-38-7-79-10c-164-13-404-88-522-162c-20-13-40-24-42-24c-3,0-27-14-53-32c-233-155-439-381-560-614
		c-90-175-143-416-143-649c0-409,133-756,394-1023c148-152,332-283,496-353c41-17,89-37,105-44c29-13,92-32,181-54
		c222-57,640-30,842,55c18,8,37,14,43,14c10,0,171,78,229,111c41,23,181,129,249,188c73,63,186,195,251,291c85,126,169,329,208,500
		c21,97,24,492,4,585c-40,181-104,351-180,475c-129,212-332,416-537,541c-192,117-346,167-605,199C11017,8500,10827,8504,10819,8496
		z M11200,8067c224-58,417-184,567-370c134-166,194-303,228-527c46-302-26-599-204-837c-354-473-1020-574-1487-225
		c-189,142-314,306-392,517c-64,172-74,497-20,680c11,38,22,81,25,94s21,53,41,90c174,331,469,549,807,595
		C10830,8093,11147,8081,11200,8067z"/>
</g>
</svg>
