<svg xmlns="http://www.w3.org/2000/svg" width="355.04" height="281.251" viewBox="0 0 355.04 281.251"><g transform="translate(-126.469 1340)"><g transform="translate(126.469 -1340)"><path d="M264.19-1332.9c-4.52,3.883-11.349,9.706-15.142,12.953s-8.409,7.16-10.242,8.752c-3.6,3.119-6.291,5.41-10.653,9.07-1.549,1.3-2.877,2.451-2.971,2.546s-1.075.955-2.213,1.909c-1.138.987-2.4,2.069-2.845,2.45-4.173,3.564-12.423,10.629-13.34,11.393-1.3,1.082-15.332,13.08-27.123,23.2-4.268,3.628-8.377,7.161-9.167,7.829-6.417,5.442-11.254,9.643-11.317,9.866-.19.541,2.086.668,8.978.573l6.923-.1,3.635-3.119c1.992-1.719,4.489-3.883,5.5-4.774,1.043-.923,2.244-1.941,2.687-2.291.885-.668,8.63-7.192,8.883-7.479.126-.127,1.423-1.209,4.268-3.532.348-.286,2.213-1.878,4.109-3.533,1.928-1.623,5.69-4.837,8.377-7.1s4.963-4.2,5.058-4.3,1.581-1.368,3.319-2.832,3.509-2.96,3.951-3.342,4.268-3.628,8.535-7.192c4.268-3.6,8.251-6.97,8.851-7.542.6-.541,1.549-1.337,2.055-1.719.537-.414,2.971-2.482,5.406-4.583,2.466-2.1,6.417-5.474,8.82-7.479s5.437-4.583,6.765-5.728c4.584-3.946,7.239-6.047,7.618-6.047.348,0,3.762,2.737,8.883,7.065,2.4,2.069,7.018,5.983,17.2,14.576,1.77,1.5,3.92,3.278,4.742,3.978.853.7,2.529,2.132,3.762,3.214,1.233,1.05,4.868,4.137,8.093,6.842s6.2,5.219,6.638,5.6c.443.35,2.371,2.005,4.268,3.628,1.928,1.655,6.038,5.156,9.167,7.765s6.259,5.251,6.955,5.856c.7.636,1.96,1.719,2.813,2.419,4.173,3.437,7.334,6.174,7.745,6.619.664.828,1.739.637,3.888-.668,1.106-.668,3.035-1.782,4.3-2.45,1.328-.732,2.276-1.464,2.276-1.75s-1.517-1.782-3.382-3.342c-1.9-1.559-4.773-4.01-6.417-5.442-1.644-1.464-4.71-4.074-6.8-5.856s-4.141-3.564-4.584-3.946-2.624-2.228-4.9-4.137c-2.244-1.909-4.678-4.01-5.406-4.615-.7-.637-1.675-1.5-2.213-1.941-4.552-3.819-7.018-5.951-7.555-6.46-.348-.318-1.612-1.4-2.845-2.387-1.2-.987-2.276-1.878-2.371-2-.158-.191-8.63-7.447-15.174-13.016-2.15-1.846-6.48-5.537-9.642-8.243-3.13-2.673-6.828-5.856-8.219-7.033-1.391-1.209-4.362-3.755-6.638-5.7a30.315,30.315,0,0,0-4.584-3.532A110.787,110.787,0,0,0,264.19-1332.9Z" transform="translate(-148.83 1340)" fill="#fff"/><path d="M364.2-1123.115c-.7.414-1.549.891-1.9,1.082a7.244,7.244,0,0,0-1.106.636c-.7.477-6.7,3.978-7.271,4.233-.253.127-.885.509-1.423.859-.506.35-1.233.764-1.581.955s-.917.509-1.264.732-1.612.955-2.845,1.623c-1.2.7-4.2,2.419-6.638,3.851s-6.133,3.6-8.219,4.806-4.078,2.355-4.426,2.578-.854.509-1.106.636-2.244,1.273-4.394,2.546c-2.118,1.273-3.951,2.323-3.983,2.323-.063,0-1.3.7-2.75,1.591a15.841,15.841,0,0,1-3.13,1.591,6.45,6.45,0,0,1-2.15-1.082c-.854-.6-1.707-1.146-1.833-1.209-.253-.1-2.592-1.623-9.42-6.142-1.9-1.273-4.615-3.023-5.975-3.914l-2.529-1.623-.853-3.469c-.917-3.755-2.94-8.879-3.7-9.547-.537-.414-9.61-.573-10.621-.191-.7.255-.664.477.6,3.151,2.244,4.837,3.951,11.393,3.951,15.148a34.375,34.375,0,0,1-1.581,8.4,35.57,35.57,0,0,1-9.041,12.762c-4.3,3.724-11.475,8.593-12.265,8.306a66.307,66.307,0,0,1-6.955-4.646,7.55,7.55,0,0,1,1.043-2.8,46.647,46.647,0,0,0,3.572-9.42c.885-3.437.948-8.784.126-11.52-.759-2.578-1.96-4.837-2.782-5.315-.948-.541-10.748-.541-14.636-.032a94.318,94.318,0,0,0-15.015,3.724c-.6.255-1.739.7-2.529.986-.79.318-1.9.764-2.434,1.018-.569.223-1.486.636-2.055.891a117,117,0,0,0-34.077,22.659l-2.055,2.005H167.89c-6.069,0-11.349.1-11.7.159-.822.223-1.486-.255-1.264-.827a11.98,11.98,0,0,1,2.15-1.973c1.075-.827,3.92-3.214,6.354-5.251,2.4-2.037,6.386-5.442,8.851-7.542s6.1-5.187,8.093-6.842c8.6-7.224,10.59-9.038,10.59-9.516,0-.446-.822-.509-7.113-.6-3.92-.032-7.429,0-7.808.1-.664.159-3.635,2.578-13.53,11.075-5.975,5.156-8.788,7.542-13.277,11.361-14.984,12.793-22.444,19.19-22.665,19.508a.7.7,0,0,0-.063.6c.095.127,12.961.255,28.608.255h28.419l2.94-3.055a105.668,105.668,0,0,1,11.759-10.5c2.371-1.814,8.282-5.856,8.535-5.856.063,0,1.2-.668,2.561-1.464a118.319,118.319,0,0,1,11.19-5.537,44.422,44.422,0,0,1,5.848-2.1c1.043-.286,2.529-.7,3.319-.923,4.015-1.146,11.886-2.26,14.383-2.037l1.264.127v2.069c-.032,2.864-.537,4.742-2.845,10.311a36.024,36.024,0,0,1-3.857,7.447,2.516,2.516,0,0,0-.632,1.464,7.709,7.709,0,0,0,1.865,1.591c.917.6,2.845,1.941,4.268,2.96,6.449,4.583,11.6,8.242,12.17,8.656.7.509.443.6,5.469-2.164,13.308-7.32,23.772-18.3,26.838-28.2.474-1.5.854-2.26,1.233-2.323.316-.064,2.244,1.018,4.331,2.387s4.046,2.641,4.331,2.8c.316.191,1.992,1.273,3.73,2.419,7.176,4.774,9.136,6.015,9.483,6.015a10.4,10.4,0,0,0,3.161-1.591c.537-.35,1.17-.732,1.423-.859s1.865-1.05,3.572-2.069,3.193-1.846,3.256-1.846a15.129,15.129,0,0,0,1.328-.732c.98-.636,12.645-7.447,14.763-8.625.348-.223,1.233-.764,1.96-1.241a13.055,13.055,0,0,1,1.486-.859,29.178,29.178,0,0,0,2.782-1.559c1.454-.859,3.193-1.878,3.888-2.26s2.908-1.687,4.9-2.864,5.69-3.31,8.219-4.774,6.069-3.532,7.9-4.615,3.541-2.037,3.793-2.164a15.051,15.051,0,0,0,1.423-.859,11.559,11.559,0,0,1,1.391-.828c.221-.127,1.644-.955,3.161-1.814,1.486-.891,3-1.75,3.351-1.941,1.486-.859,2.339-1.559,2.181-1.814a88.459,88.459,0,0,0-10.179-.255C365.525-1123.879,365.461-1123.879,364.2-1123.115Z" transform="translate(-126.469 1192.683)" fill="#fff"/></g><g transform="translate(127.269 -1245.923)"><path d="M735.423-1044.169c-.379.223-.443,8.625-.443,60.4,0,55.6-.031,60.148-.506,60.339-.6.223-.948-.127-18.145-18.363-3.382-3.6-6.733-7.129-7.429-7.829-1.359-1.432-4.362-4.583-9.8-10.311-1.928-2-6.259-6.588-9.642-10.152s-6.67-7-7.271-7.638c-13.656-14.448-13.561-14.353-13.941-14.353-.474,0-.348,96.969.095,97.256a46.585,46.585,0,0,0,6.354.255c4.615.032,6.133-.064,6.449-.382.348-.35.411-6.206.411-31.92,0-24.95.095-31.474.411-31.474.348,0,4.426,4.074,10.969,11.011,1.486,1.559,6.038,6.333,10.116,10.6s7.587,7.924,7.745,8.115c.6.668,13.593,14.353,14.857,15.658,1.833,1.941,5.406,5.665,13.909,14.607,4.173,4.36,7.745,8.083,7.966,8.211a.855.855,0,0,0,.727.064c.221-.127.316-26.51.316-76.824,0-65.909-.063-76.7-.443-77.015C747.593-1044.36,736.15-1044.582,735.423-1044.169Z" transform="translate(-496.378 1044.387)" fill="#fff"/><path d="M390.581-883.529c-.095.223-.19,9.866-.253,21.418l-.063,21h-39.2l-.158-17.5-.158-17.5-6.164-.1c-3.382-.032-6.48,0-6.86.1l-.727.159v44.968c0,26.733.126,45.127.284,45.414.443.668,12.9.636,13.34-.032.158-.255.285-9.579.285-21.163,0-15.658.095-20.781.379-21.068s5.058-.382,19.568-.382c17.2,0,19.188.064,19.378.509.095.286.19,9.77.19,21.068,0,11.457.126,20.781.284,21.036.221.35,1.517.446,6.259.509a46.734,46.734,0,0,0,6.67-.223l.7-.255-.063-49.073-.095-49.105-6.733-.1C392.225-883.911,390.676-883.847,390.581-883.529Z" transform="translate(-270.807 934.954)" fill="#fff"/><path d="M585.379-883.618c-.285.286-.379,11.648-.379,49.169v48.787l.727.255c.885.318,12.3.255,12.8-.064.537-.35.569-97.574,0-98.147-.284-.286-2.181-.382-6.575-.382S585.664-883.9,585.379-883.618Z" transform="translate(-440.036 935.042)" fill="#fff"/><path d="M129.221-862.75c-.126.127-.221,20.845-.221,46.018,0,43.345.032,45.764.569,45.8,2.371.191,11.759.1,12.328-.1l.7-.255v-17.885c0-9.866.095-18.235.19-18.649.158-.573.411-.7,1.359-.7,1.138,0,1.264.1,3.351,3.246,1.2,1.814,2.971,4.36,3.951,5.665.948,1.3,2.719,3.819,3.888,5.569s3,4.392,4.046,5.888,2.371,3.405,2.971,4.3c.569.859,2.086,3.023,3.319,4.774s5.872,8.147,5.872,8.147,14.264.191,15.719,0c.727-.1-.348-1.687-12.739-18.649-1.9-2.641-5.089-7.065-7.113-9.866-1.992-2.8-4.362-6.078-5.248-7.288-2.308-3.119-2.308-3.151.095-3.978,9.2-3.214,15.047-9.579,17.228-18.808a34.057,34.057,0,0,0-.19-13.366,23.9,23.9,0,0,0-11.475-15.435c-3.7-2.037-6.069-2.8-12.581-4.01C152.93-862.782,129.632-863.132,129.221-862.75Zm21.085,12.889c4.773.35,6.48.764,9.61,2.26a12.009,12.009,0,0,1,5.753,5.919c.98,2,1.012,2.323,1.012,5.951.032,3.6-.032,3.978-.98,6.238-1.675,4.074-4.52,6.4-9.831,7.988-2.75.827-12.55,1.241-12.992.541-.411-.636-.379-27.846.032-28.642C143.32-850.338,143.984-850.37,150.306-849.861Z" transform="translate(-129 920.667)" fill="#fff"/><path d="M986.225-849.89a14.756,14.756,0,0,1-2.5.318c-5.184.414-12.771,2.8-16.5,5.156a9.227,9.227,0,0,1-1.328.764,10.061,10.061,0,0,0-1.675,1.018,54.8,54.8,0,0,0-17.7,19.54c-2.845,5.569-4.52,13.239-4.52,20.654,0,13.016,4.2,24.059,12.455,32.557a51.692,51.692,0,0,0,15.679,11.234c1.3.541,2.813,1.178,3.319,1.4a41.429,41.429,0,0,0,5.722,1.719c7.018,1.814,20.231.955,26.617-1.75a5.243,5.243,0,0,1,1.359-.445,75.505,75.505,0,0,0,7.239-3.533,81.561,81.561,0,0,0,7.871-5.983,56.712,56.712,0,0,0,7.934-9.261,52.557,52.557,0,0,0,6.575-15.912c.664-3.087.759-15.658.126-18.617a51.171,51.171,0,0,0-5.69-15.117,54,54,0,0,0-16.975-17.217c-6.069-3.724-10.938-5.315-19.125-6.333C992.484-850.017,986.477-850.145,986.225-849.89Zm12.044,13.653a33.571,33.571,0,0,1,17.924,11.775c4.236,5.283,6.133,9.643,7.207,16.771a35.391,35.391,0,0,1-6.449,26.637c-11.19,15.053-32.244,18.267-47.006,7.161a35.061,35.061,0,0,1-12.392-16.453c-2.023-5.474-2.339-15.817-.632-21.641.348-1.209.7-2.578.79-2.992a17.984,17.984,0,0,1,1.3-2.864c5.5-10.534,14.826-17.472,25.51-18.936A84.7,84.7,0,0,1,998.268-836.237Z" transform="translate(-683.085 911.88)" fill="#fff"/></g><path d="M19.2-6.237,13.77-19.845,8.4-6.237,3.915-18.9H.216L7.938,1,13.77-12.366,19.6,1l7.722-19.9h-3.7ZM28.971-18.9V0h3.213V-18.9Zm20.547,0V-6.21l-13.8-13.635V0h3.132V-12.69L52.65.945V-18.9Zm6.642,0V0H59.4V-18.9ZM62.262,0a10.567,10.567,0,0,0,5.076-1.175,8.535,8.535,0,0,0,3.416-3.294A9.759,9.759,0,0,0,71.982-9.45a9.759,9.759,0,0,0-1.229-4.981,8.535,8.535,0,0,0-3.416-3.294A10.567,10.567,0,0,0,62.262-18.9H58.131v3h4.05a7.986,7.986,0,0,1,2.592.405,5.731,5.731,0,0,1,2.065,1.215,5.614,5.614,0,0,1,1.377,2.025,7.341,7.341,0,0,1,.5,2.808,7.341,7.341,0,0,1-.5,2.808,5.613,5.613,0,0,1-1.377,2.025A5.731,5.731,0,0,1,64.773-3.4a7.986,7.986,0,0,1-2.592.4h-4.05V0ZM76.707-9.45a7.187,7.187,0,0,1,.824-3.469,6.074,6.074,0,0,1,2.281-2.39,6.389,6.389,0,0,1,3.321-.864,6.423,6.423,0,0,1,3.361.864,6.009,6.009,0,0,1,2.255,2.39,7.284,7.284,0,0,1,.81,3.469,7.187,7.187,0,0,1-.824,3.47,6.1,6.1,0,0,1-2.268,2.39,6.37,6.37,0,0,1-3.334.864,6.389,6.389,0,0,1-3.321-.864,6.074,6.074,0,0,1-2.281-2.39A7.187,7.187,0,0,1,76.707-9.45Zm-3.375,0a10.376,10.376,0,0,0,.729,3.915A9.382,9.382,0,0,0,76.1-2.4,9.3,9.3,0,0,0,79.218-.338a10.21,10.21,0,0,0,3.915.743,10.181,10.181,0,0,0,3.928-.743A9.484,9.484,0,0,0,90.18-2.4a9.28,9.28,0,0,0,2.052-3.132,10.376,10.376,0,0,0,.729-3.915,10.244,10.244,0,0,0-.729-3.915,9.1,9.1,0,0,0-2.065-3.092A9.6,9.6,0,0,0,87.048-18.5a10.244,10.244,0,0,0-3.915-.729,10.2,10.2,0,0,0-3.875.729,9.567,9.567,0,0,0-3.132,2.038,9.1,9.1,0,0,0-2.066,3.092A10.244,10.244,0,0,0,73.332-9.45Zm38.34,3.213-5.427-13.608L100.872-6.237,96.39-18.9h-3.7L100.413,1l5.832-13.365L112.077,1,119.8-18.9h-3.7Zm11.016.162-2.376,1.647a9.328,9.328,0,0,0,1.674,2.4,8.107,8.107,0,0,0,2.47,1.769,7.219,7.219,0,0,0,3.091.662,7.029,7.029,0,0,0,2.336-.392A6.73,6.73,0,0,0,131.9-1.094a5.1,5.1,0,0,0,1.4-1.769,5.355,5.355,0,0,0,.513-2.376,5.167,5.167,0,0,0-.419-2.16A5.318,5.318,0,0,0,132.273-9a6.864,6.864,0,0,0-1.553-1.148,12.025,12.025,0,0,0-1.687-.756,17.843,17.843,0,0,1-2.457-1.053,4.328,4.328,0,0,1-1.391-1.094,2.1,2.1,0,0,1-.445-1.309,1.923,1.923,0,0,1,.621-1.418,2.692,2.692,0,0,1,1.944-.608,3.61,3.61,0,0,1,1.66.365,4.245,4.245,0,0,1,1.255.972,6.015,6.015,0,0,1,.891,1.309L133.7-15.2a7.943,7.943,0,0,0-1.337-1.917,6.832,6.832,0,0,0-2.092-1.512,6.693,6.693,0,0,0-2.916-.594,7,7,0,0,0-3.037.635,5.212,5.212,0,0,0-2.119,1.782,4.6,4.6,0,0,0-.783,2.659,4.612,4.612,0,0,0,.513,2.255,5.248,5.248,0,0,0,1.3,1.566,8.5,8.5,0,0,0,1.647,1.053,14.6,14.6,0,0,0,1.566.662,21.034,21.034,0,0,1,2.092.877,4.133,4.133,0,0,1,1.417,1.08,2.6,2.6,0,0,1,.513,1.688,2.284,2.284,0,0,1-.81,1.809,3.1,3.1,0,0,1-2.106.7A4.179,4.179,0,0,1,125.6-2.9a5.338,5.338,0,0,1-1.579-1.269A12.05,12.05,0,0,1,122.688-6.075Zm25.056-4.158L156.843,0h3.429l-9.99-11.205q-.918-1.053-1.633-1.877a2.564,2.564,0,0,1-.715-1.687,2.047,2.047,0,0,1,.553-1.472,2.079,2.079,0,0,1,1.579-.58,2.12,2.12,0,0,1,1.134.284,2.02,2.02,0,0,1,.715.742,2.122,2.122,0,0,1,.257,1.053A2.636,2.636,0,0,1,151.335-13a8.913,8.913,0,0,1-2.349,1.715q-.567.27-1.363.621t-1.633.823a7.957,7.957,0,0,0-1.553,1.148,5.694,5.694,0,0,0-1.174,1.58,4.626,4.626,0,0,0-.459,2.12,4.639,4.639,0,0,0,.878,2.835,5.66,5.66,0,0,0,2.309,1.823A7.507,7.507,0,0,0,149.067.3a8.836,8.836,0,0,0,3.483-.675,12.242,12.242,0,0,0,2.943-1.769,18.389,18.389,0,0,0,2.5-2.457q1.147-1.363,2.146-2.74L158.031-8.8q-.918,1.3-1.917,2.47a17.437,17.437,0,0,1-2.079,2.079,10.186,10.186,0,0,1-2.241,1.445,5.637,5.637,0,0,1-2.4.54,4.243,4.243,0,0,1-1.809-.365,3,3,0,0,1-1.242-1.039,2.672,2.672,0,0,1-.459-1.539,2.691,2.691,0,0,1,.472-1.607,4.429,4.429,0,0,1,1.229-1.148,15.125,15.125,0,0,1,1.593-.891,16.09,16.09,0,0,0,1.566-.864,20.958,20.958,0,0,0,1.809-1.215,8.761,8.761,0,0,0,1.323-1.215,4.829,4.829,0,0,0,.824-1.3,3.726,3.726,0,0,0,.284-1.458,4.105,4.105,0,0,0-.581-2.119,4.429,4.429,0,0,0-1.674-1.607,5.308,5.308,0,0,0-2.66-.621,5.931,5.931,0,0,0-2.66.567,4.324,4.324,0,0,0-1.782,1.566,4.092,4.092,0,0,0-.635,2.241,3.671,3.671,0,0,0,.473,1.836,7.839,7.839,0,0,0,1.12,1.525Q147.231-10.827,147.744-10.233Zm21.9-8.667V0h3.24V-18.9Zm6.1,18.9a10.567,10.567,0,0,0,5.076-1.175,8.535,8.535,0,0,0,3.416-3.294,9.759,9.759,0,0,0,1.228-4.982,9.759,9.759,0,0,0-1.228-4.981,8.535,8.535,0,0,0-3.416-3.294,10.567,10.567,0,0,0-5.076-1.174h-4.131v3h4.05a7.986,7.986,0,0,1,2.592.405,5.731,5.731,0,0,1,2.066,1.215,5.613,5.613,0,0,1,1.377,2.025,7.341,7.341,0,0,1,.5,2.808,7.341,7.341,0,0,1-.5,2.808,5.613,5.613,0,0,1-1.377,2.025A5.731,5.731,0,0,1,178.254-3.4a7.986,7.986,0,0,1-2.592.4h-4.05V0Zm14.445-9.45a7.187,7.187,0,0,1,.824-3.469,6.074,6.074,0,0,1,2.281-2.39,6.389,6.389,0,0,1,3.321-.864,6.423,6.423,0,0,1,3.362.864,6.009,6.009,0,0,1,2.254,2.39,7.284,7.284,0,0,1,.81,3.469,7.187,7.187,0,0,1-.824,3.47,6.1,6.1,0,0,1-2.268,2.39,6.37,6.37,0,0,1-3.335.864,6.389,6.389,0,0,1-3.321-.864,6.074,6.074,0,0,1-2.281-2.39A7.187,7.187,0,0,1,190.188-9.45Zm-3.375,0a10.376,10.376,0,0,0,.729,3.915A9.382,9.382,0,0,0,189.581-2.4,9.3,9.3,0,0,0,192.7-.338a10.21,10.21,0,0,0,3.915.743,10.181,10.181,0,0,0,3.928-.743A9.484,9.484,0,0,0,203.661-2.4a9.28,9.28,0,0,0,2.052-3.132,10.376,10.376,0,0,0,.729-3.915,10.244,10.244,0,0,0-.729-3.915,9.1,9.1,0,0,0-2.065-3.092,9.6,9.6,0,0,0-3.118-2.038,10.244,10.244,0,0,0-3.915-.729,10.2,10.2,0,0,0-3.874.729,9.567,9.567,0,0,0-3.132,2.038,9.1,9.1,0,0,0-2.065,3.092A10.244,10.244,0,0,0,186.813-9.45Zm24.354,0a7.187,7.187,0,0,1,.824-3.469,6.074,6.074,0,0,1,2.281-2.39,6.389,6.389,0,0,1,3.321-.864,6.423,6.423,0,0,1,3.362.864,6.009,6.009,0,0,1,2.254,2.39,7.284,7.284,0,0,1,.81,3.469,7.187,7.187,0,0,1-.824,3.47,6.1,6.1,0,0,1-2.268,2.39,6.37,6.37,0,0,1-3.335.864,6.389,6.389,0,0,1-3.321-.864,6.074,6.074,0,0,1-2.281-2.39A7.187,7.187,0,0,1,211.167-9.45Zm-3.375,0a10.376,10.376,0,0,0,.729,3.915A9.382,9.382,0,0,0,210.56-2.4a9.3,9.3,0,0,0,3.118,2.066,10.21,10.21,0,0,0,3.915.743,10.181,10.181,0,0,0,3.928-.743A9.484,9.484,0,0,0,224.64-2.4a9.28,9.28,0,0,0,2.052-3.132,10.376,10.376,0,0,0,.729-3.915,10.244,10.244,0,0,0-.729-3.915,9.1,9.1,0,0,0-2.065-3.092,9.6,9.6,0,0,0-3.118-2.038,10.244,10.244,0,0,0-3.915-.729,10.2,10.2,0,0,0-3.874.729,9.567,9.567,0,0,0-3.132,2.038,9.1,9.1,0,0,0-2.065,3.092A10.244,10.244,0,0,0,207.792-9.45Zm25.947.432L239.76,0h3.834l-6.4-9.018ZM229.851-18.9V0h3.186V-18.9Zm1.89,2.754h3.807a4.519,4.519,0,0,1,1.9.378,2.972,2.972,0,0,1,1.283,1.08,3.091,3.091,0,0,1,.459,1.728,3.107,3.107,0,0,1-.459,1.715,2.94,2.94,0,0,1-1.283,1.094,4.519,4.519,0,0,1-1.9.378h-3.807v2.619h3.942a8.216,8.216,0,0,0,3.577-.729,5.551,5.551,0,0,0,2.363-2.052,5.684,5.684,0,0,0,.837-3.1,5.616,5.616,0,0,0-.837-3.092,5.583,5.583,0,0,0-2.363-2.038,8.216,8.216,0,0,0-3.577-.729h-3.942ZM246.483-6.075l-2.376,1.647a9.328,9.328,0,0,0,1.674,2.4,8.107,8.107,0,0,0,2.471,1.769,7.219,7.219,0,0,0,3.091.662,7.029,7.029,0,0,0,2.336-.392,6.73,6.73,0,0,0,2.012-1.107,5.1,5.1,0,0,0,1.4-1.769,5.355,5.355,0,0,0,.513-2.376,5.167,5.167,0,0,0-.418-2.16A5.318,5.318,0,0,0,256.068-9a6.864,6.864,0,0,0-1.552-1.148,12.025,12.025,0,0,0-1.687-.756,17.842,17.842,0,0,1-2.457-1.053,4.328,4.328,0,0,1-1.391-1.094,2.1,2.1,0,0,1-.446-1.309,1.923,1.923,0,0,1,.621-1.418,2.692,2.692,0,0,1,1.944-.608,3.61,3.61,0,0,1,1.661.365,4.245,4.245,0,0,1,1.255.972,6.015,6.015,0,0,1,.891,1.309L257.5-15.2a7.944,7.944,0,0,0-1.336-1.917,6.832,6.832,0,0,0-2.093-1.512,6.692,6.692,0,0,0-2.916-.594,7,7,0,0,0-3.037.635A5.212,5.212,0,0,0,246-16.808a4.6,4.6,0,0,0-.783,2.659,4.612,4.612,0,0,0,.513,2.255,5.248,5.248,0,0,0,1.3,1.566,8.5,8.5,0,0,0,1.647,1.053,14.6,14.6,0,0,0,1.566.662,21.033,21.033,0,0,1,2.092.877,4.133,4.133,0,0,1,1.418,1.08,2.6,2.6,0,0,1,.513,1.688,2.284,2.284,0,0,1-.81,1.809,3.1,3.1,0,0,1-2.106.7A4.179,4.179,0,0,1,249.4-2.9a5.338,5.338,0,0,1-1.58-1.269A12.049,12.049,0,0,1,246.483-6.075Z" transform="translate(126.341 -1059.748)" fill="#eb7d6a"/></g></svg>