<?xml version="1.0" encoding="UTF-8" standalone="no"?>
<!-- Generator: Adobe Illustrator 27.1.0, SVG Export Plug-In . SVG Version: 6.00 Build 0)  -->

<svg
   version="1.1"
   id="Layer_1"
   x="0px"
   y="0px"
   viewBox="0 0 1600 1000"
   xml:space="preserve"
   sodipodi:docname="logoSmallLight.svg"
   inkscape:version="1.1.2 (0a00cf5339, 2022-02-04)"
   width="1600"
   height="1000"
   xmlns:inkscape="http://www.inkscape.org/namespaces/inkscape"
   xmlns:sodipodi="http://sodipodi.sourceforge.net/DTD/sodipodi-0.dtd"
   xmlns="http://www.w3.org/2000/svg"
   xmlns:svg="http://www.w3.org/2000/svg"><defs
   id="defs21" /><sodipodi:namedview
   id="namedview19"
   pagecolor="#ffffff"
   bordercolor="#666666"
   borderopacity="1.0"
   inkscape:pageshadow="2"
   inkscape:pageopacity="0.0"
   inkscape:pagecheckerboard="0"
   showgrid="false"
   inkscape:zoom="0.25455729"
   inkscape:cx="-390.87468"
   inkscape:cy="661.93351"
   inkscape:window-width="1920"
   inkscape:window-height="958"
   inkscape:window-x="0"
   inkscape:window-y="0"
   inkscape:window-maximized="1"
   inkscape:current-layer="Layer_1" />
<g
   transform="matrix(0.09998402,0,0,-0.09997455,-64.222854,1323.01)"
   id="g16">
	<path
   d="m 6996.6586,11318.359 c -228.8391,-195.234 -574.4983,-488.084 -766.5312,-651.312 -192.0329,-163.228 -425.6729,-360.061 -518.4889,-440.076 -182.4313,-156.826 -318.4546,-272.0459 -539.2924,-456.0769 -78.4135,-65.6123 -145.625,-123.2213 -150.4257,-128.0225 -4.8009,-4.8012 -54.4094,-48.0088 -112.0193,-96.0165 -57.6099,-49.6081 -121.6208,-104.0174 -144.0247,-123.2211 -211.2361,-179.2307 -628.9078,-534.4914 -675.3157,-572.8979 -65.6113,-54.4092 -776.1329,-657.7125 -1373.0352,-1166.5998 -216.037,-182.4315 -424.0726,-360.0619 -464.0795,-393.6681 -324.8556,-273.6469 -569.6976,-484.8828 -572.8981,-496.0848 -9.6017,-27.2046 105.6181,-33.6057 454.4778,-28.8049 l 350.4601,4.8008 184.0316,156.827 c 100.8171,86.4142 227.2388,195.2338 278.4476,240.0407 52.809,46.4084 113.6194,97.6169 136.0233,115.2202 44.8076,33.6052 436.8748,361.6623 449.677,376.0638 6.4011,6.4016 72.0123,60.8108 216.0371,177.6314 17.603,14.4015 112.0191,94.416 208.0356,177.6304 97.6167,81.6139 288.0493,243.2414 424.0726,356.8611 136.0234,113.6188 251.2431,211.2356 256.044,216.0368 4.8008,4.8012 80.0136,68.8118 168.0287,142.4238 88.0151,73.613 177.6305,148.8263 200.0342,168.029 22.4039,19.2037 216.0371,182.4316 432.0742,361.6623 216.0369,180.8312 417.6714,350.4596 448.0767,379.2646 30.4052,27.2046 78.4134,67.2114 104.0178,86.4151 27.2047,20.8028 150.4258,124.8216 273.6469,230.4396 124.8214,105.6179 324.8557,275.2469 446.4765,376.0649 121.6208,100.816 275.2472,230.439 342.4587,288.049 232.0397,198.433 366.4629,304.052 385.6661,304.052 17.603,0 190.4326,-137.624 449.677,-355.261 121.6209,-104.018 355.2609,-300.852 870.5492,-732.9253 89.6154,-75.2139 198.434,-164.8284 240.0411,-200.0341 43.2074,-35.2066 128.022,-107.2192 190.4326,-161.6284 62.4108,-52.8089 246.4423,-208.0359 409.6707,-344.0591 163.228,-136.0231 313.6533,-262.445 336.0574,-281.6477 22.404,-17.6034 120.0206,-100.8177 216.0366,-182.4315 97.617,-83.2144 305.652,-259.2444 464.079,-390.4664 158.427,-131.2231 316.855,-264.0455 352.061,-294.4509 35.206,-32.0058 99.217,-86.4151 142.424,-121.6207 211.236,-172.8303 371.264,-310.4528 392.067,-332.8573 33.607,-41.6072 88.016,-32.0058 196.835,33.6062 56.009,33.6052 153.626,89.6149 217.636,123.2211 67.212,36.8059 115.221,73.612 115.221,88.0145 0,14.4025 -76.814,89.6159 -171.23,168.029 -96.017,78.4131 -241.641,201.6342 -324.855,273.6468 -83.215,73.613 -238.442,204.835 -344.06,294.451 -105.618,89.6148 -209.636,179.2307 -232.04,198.4333 -22.403,19.2038 -132.822,112.0194 -248.042,208.0359 -113.619,96.0164 -236.84,201.6342 -273.647,232.0396 -35.206,32.0059 -84.814,75.2134 -112.019,97.6169 -230.439,192.0328 -355.2609,299.2511 -382.465,324.8553 -17.6033,16.0029 -81.6139,70.4122 -144.0253,120.0213 -60.8098,49.608 -115.2196,94.4162 -120.0205,100.817 -8.0007,9.6016 -436.8748,374.4635 -768.1316,654.5115 -108.8186,92.817 -328.0562,278.448 -488.0835,414.471 -158.4272,134.424 -345.6593,294.451 -416.0713,353.662 -70.4121,60.809 -220.8378,188.832 -336.0576,286.449 -113.6195,97.616 -219.2377,177.63 -232.0398,177.63 -12.8022,0 -211.2362,-160.027 -441.6758,-356.861 z"
   id="path2"
   style="stroke-width:1.60027" />
	<path
   d="m 13194.727,8177.0207 c -35.205,-20.8041 -78.413,-44.808 -96.016,-54.4094 -17.603,-8.0019 -43.207,-22.4045 -56.009,-32.0058 -35.207,-24.0038 -339.259,-200.0338 -368.064,-212.836 -12.802,-6.4015 -44.807,-25.6052 -72.011,-43.2075 -25.606,-17.6033 -62.412,-38.4074 -80.015,-48.0087 -17.603,-9.6013 -46.408,-25.6043 -64.011,-36.806 -17.603,-11.2017 -81.613,-48.0087 -144.025,-81.6139 -60.81,-35.2067 -212.836,-121.6207 -336.057,-193.6333 -123.221,-72.0126 -310.454,-180.8312 -416.072,-241.6421 -105.617,-60.8097 -206.435,-118.4199 -224.038,-129.6216 -17.603,-11.2017 -43.208,-25.6042 -56.01,-32.0058 -12.802,-6.4005 -113.619,-64.0106 -222.438,-128.0216 -107.218,-64.011 -200.034,-116.8201 -201.634,-116.8201 -3.201,0 -65.611,-35.206 -139.224,-80.0137 -73.613,-43.2074 -144.025,-80.0137 -158.427,-80.0137 -16.003,0 -64.011,24.0041 -108.818,54.4093 -43.208,30.4053 -86.415,57.6099 -92.817,60.8105 -12.801,4.8007 -131.222,81.6139 -476.8814,308.853 -96.0163,64.0106 -233.6401,152.0261 -302.4516,196.8341 l -128.0222,81.6139 -43.2073,174.4296 c -46.408,188.8321 -148.8256,446.476 -187.2321,480.0822 -27.2047,20.8031 -486.4833,28.8051 -537.6921,9.6014 -35.206,-12.8021 -33.6058,-24.0039 30.4052,-158.4267 113.6194,-243.2424 200.0342,-572.8989 200.0342,-761.731 0,-96.0165 -46.4079,-342.4585 -80.0137,-422.4722 -102.4175,-244.842 -267.2458,-475.2815 -457.6783,-641.7099 -217.6374,-187.2321 -580.8996,-432.0741 -620.9065,-417.6716 -36.8063,14.4024 -342.4586,216.037 -352.0603,233.6401 -6.4011,8.0014 17.603,72.0122 52.8091,140.8241 84.8144,171.2293 140.8241,316.8543 180.8309,473.6811 44.8077,172.8296 48.0082,441.6756 6.4012,579.2991 -38.4067,129.6226 -99.2171,243.2414 -140.8242,267.2462 -48.0083,27.2047 -544.0932,27.2047 -740.927,1.6004 -206.4354,-28.8049 -608.1041,-128.0222 -760.1302,-187.2327 -30.4052,-12.8022 -88.0151,-35.2056 -128.0219,-49.6081 -40.0069,-16.0029 -96.0165,-38.4064 -123.2211,-51.2085 -28.805,-11.2027 -75.2129,-32.0058 -104.0178,-44.8079 C 5006.1241,6717.5703 4417.2233,6327.1034 3921.1382,5855.0225 l -104.0178,-100.8173 h -560.096 c -307.2526,0 -574.4983,-4.8008 -592.1013,-8.0014 -41.6072,-11.2018 -75.213,12.8022 -64.0111,41.6072 6.4012,12.8021 54.4094,57.6099 108.8187,99.2169 54.4093,41.6072 198.4339,161.6278 321.6552,264.0453 121.6207,102.4175 323.2553,273.6469 448.0767,379.2651 124.8214,105.618 308.8529,260.8446 409.6701,344.0588 435.2746,363.2622 536.0919,454.4774 536.0919,478.4823 0,22.4035 -41.6071,25.6042 -360.0618,30.4055 -198.4339,1.5993 -376.0643,0 -395.2677,-4.8013 -33.6057,-8.002 -184.0315,-129.6226 -684.9173,-556.8955 -302.4517,-259.2445 -444.8761,-379.265 -672.1151,-571.2979 -758.5299,-643.3102 -1136.1946,-964.9653 -1147.3966,-980.9681 -6.4011,-9.6017 -6.4011,-24.0041 -3.2005,-30.4052 4.8008,-6.4011 656.1124,-12.8022 1448.2481,-12.8022 h 1438.6464 l 148.8256,153.6263 c 164.8282,172.8297 403.2691,384.0658 595.302,528.0905 120.0205,91.2157 419.2718,294.4505 432.074,294.4505 3.2006,0 60.8104,33.6057 129.6222,73.6126 131.2225,76.8132 417.6715,217.6373 566.4971,278.4476 161.6276,65.6113 200.0342,78.4135 296.0506,105.6182 52.8092,14.4025 128.022,35.2061 168.0289,46.4079 203.2348,57.6099 601.7031,113.6195 728.1248,102.4176 l 64.011,-6.4011 V 6698.367 c -1.6004,-144.0248 -27.2047,-238.4408 -144.0248,-518.4889 -68.8117,-166.4285 -137.6236,-299.2512 -195.2334,-374.4641 -22.4039,-28.8049 -35.206,-62.4107 -32.0055,-73.6127 4.8009,-12.8021 48.0082,-48.0082 94.4162,-80.0136 46.408,-30.4053 144.0247,-97.6168 216.037,-148.8255 326.4559,-230.4395 587.3006,-414.4711 616.1055,-435.2747 35.2062,-25.6043 22.4039,-30.4052 276.8476,108.8187 673.7154,368.0631 1203.4061,920.1577 1358.6327,1417.843 24.0042,75.2128 43.2074,113.6194 62.4108,116.82 16.0027,3.2006 113.6194,-51.2088 219.2379,-120.0207 105.6181,-68.8117 204.8353,-132.8227 219.2377,-140.824 16.0025,-9.6017 100.8172,-64.0109 188.832,-121.6208 363.262,-240.0412 462.479,-302.4519 480.082,-302.4519 20.804,0 84.814,32.0055 160.027,80.0138 27.205,17.603 59.21,36.8063 72.013,43.2073 12.802,6.4011 94.416,52.8091 180.831,104.0178 86.414,51.2088 161.627,92.816 164.828,92.816 3.2,0 33.606,17.603 67.212,36.8063 49.608,32.0055 640.109,374.4641 747.327,433.6742 17.603,11.202 62.411,38.4067 99.217,62.4108 38.407,24.0041 72.013,43.2074 75.214,43.2074 4.8,0 68.811,35.2059 140.823,78.413 73.613,43.2075 161.628,94.4171 196.834,113.6197 35.206,19.2038 147.226,84.8148 248.043,144.0253 100.818,59.2093 288.049,166.4286 416.072,240.0405 128.022,73.613 307.253,177.6304 400.068,232.0397 92.816,54.4093 179.231,102.418 192.033,108.8186 12.802,6.4015 46.407,25.6042 72.013,43.2076 27.204,17.6032 57.609,36.8059 70.411,41.6071 11.203,6.4015 83.214,48.0087 160.028,91.2152 75.212,44.808 152.026,88.0156 169.629,97.6169 75.213,43.2076 118.42,78.4142 110.418,91.2163 -4.8,8.0009 -233.64,14.4025 -515.288,12.8021 -504.086,-1.6004 -507.286,-1.6004 -571.298,-40.0067 z"
   id="path4"
   style="stroke-width:1.60027" />
	
	
	
	
	
</g>
</svg>
